<?xml version="1.0" standalone="no"?>
<!DOCTYPE svg PUBLIC "-//W3C//DTD SVG 20010904//EN"
 "http://www.w3.org/TR/2001/REC-SVG-20010904/DTD/svg10.dtd">
<svg version="1.0" xmlns="http://www.w3.org/2000/svg"
 width="383.000000pt" height="383.000000pt" viewBox="0 0 383.000000 383.000000"
 preserveAspectRatio="xMidYMid meet">
<metadata>
Created by potrace 1.14, written by Peter Selinger 2001-2017
</metadata>
<g transform="translate(0.000000,383.000000) scale(0.100000,-0.100000)"
fill="#000000" stroke="none">
<path d="M2697 3824 c-2 -2 -48 -6 -103 -9 -119 -6 -263 -15 -494 -30 -41 -3
-111 -7 -155 -10 -121 -7 -252 -15 -335 -20 -41 -3 -113 -8 -160 -10 -47 -3
-116 -8 -155 -10 -38 -3 -110 -7 -160 -10 -49 -3 -126 -8 -170 -11 -44 -3
-107 -7 -140 -9 -176 -10 -269 -16 -274 -20 -3 -2 -6 -727 -6 -1611 l0 -1609
40 -7 c22 -4 58 -10 80 -13 22 -4 44 -10 50 -13 5 -4 19 -7 30 -8 28 -2 84
-13 122 -24 18 -4 33 -6 33 -4 0 3 8 1 18 -5 9 -5 38 -12 65 -15 26 -4 58 -11
71 -16 13 -5 27 -6 30 -3 3 4 6 1 6 -5 0 -6 11 -9 26 -6 14 3 23 1 20 -5 -4
-5 4 -7 16 -3 21 5 22 4 8 -14 -14 -19 -14 -19 8 0 12 11 22 15 22 10 0 -5 14
-10 31 -11 17 -1 38 -8 47 -15 12 -10 14 -10 8 0 -4 6 -2 12 3 12 6 0 11 -4
11 -10 0 -5 6 -9 13 -7 6 1 11 -5 9 -13 -1 -10 2 -9 13 4 13 17 19 15 16 -6
-1 -8 20 -5 37 5 7 5 12 3 12 -3 0 -6 4 -9 9 -6 5 4 12 0 14 -6 4 -9 6 -9 6 1
1 11 5 10 17 -5 8 -10 13 -13 9 -6 -3 6 -2 12 4 12 5 0 12 -6 14 -12 4 -10 6
-10 6 0 1 8 6 10 14 5 6 -4 23 -8 37 -9 13 -1 26 -6 28 -12 3 -9 9 -9 24 -1
18 10 19 8 13 -13 -5 -18 -4 -20 4 -7 9 13 18 15 46 9 19 -4 35 -5 35 -1 0 3
7 -3 15 -13 11 -14 15 -16 15 -5 0 12 2 12 10 -1 9 -13 11 -13 20 0 8 13 10
12 10 -4 0 -15 3 -16 14 -7 10 8 16 9 21 2 3 -6 16 -9 28 -7 12 2 28 -1 35 -6
6 -6 12 -7 12 -3 0 4 12 0 26 -10 15 -9 23 -12 20 -6 -9 13 -9 13 34 0 19 -6
48 -13 65 -16 16 -2 35 -12 42 -21 12 -16 13 -16 7 0 -5 14 -1 15 38 6 24 -6
52 -12 63 -13 11 -2 22 -4 25 -5 7 -3 23 -7 37 -8 6 -1 10 -12 8 -23 -3 -12
-1 -18 3 -15 4 4 7 13 7 19 0 19 25 19 26 0 0 -10 3 -13 5 -7 5 13 52 7 73
-10 11 -8 13 -8 7 2 -4 6 -2 12 3 12 6 0 11 -4 11 -8 0 -4 8 -8 18 -9 9 -1 32
-2 49 -4 28 -2 31 -4 20 -17 -10 -13 -9 -14 7 -5 16 9 101 -2 171 -21 6 -2 28
-6 50 -11 22 -4 46 -12 53 -18 8 -6 12 -6 12 2 0 7 8 8 23 2 26 -9 68 -8 87 4
9 5 11 4 6 -3 -5 -8 -2 -10 8 -6 9 3 16 10 16 15 0 5 5 9 11 9 5 0 7 -6 4 -12
-4 -7 1 -4 9 6 9 11 16 14 16 8 0 -7 5 -12 11 -12 5 0 7 6 3 13 -5 7 0 6 11
-3 17 -14 18 -13 12 3 -4 10 -3 16 1 13 5 -3 21 1 36 9 16 8 24 10 20 3 -5 -7
-2 -9 8 -5 9 3 21 1 27 -4 8 -6 8 -5 1 3 -15 18 -12 28 5 22 8 -4 15 -2 15 3
0 5 10 9 23 8 12 -1 30 7 40 18 11 13 17 15 17 7 0 -9 5 -7 14 6 8 10 18 16
22 12 4 -4 15 2 25 14 11 11 19 18 19 14 0 -4 14 1 30 11 l30 17 0 1801 c0
1434 -3 1802 -12 1802 -7 1 -31 4 -53 8 -22 4 -46 8 -52 8 -7 0 -13 3 -13 6 0
3 -15 6 -32 5 -18 0 -41 4 -50 8 -12 6 -18 5 -18 -2 0 -7 -5 -8 -12 -3 -12 7
-334 14 -341 7z"/>
<path d="M1616 217 c3 -10 9 -15 12 -12 3 3 0 11 -7 18 -10 9 -11 8 -5 -6z"/>
<path d="M1914 156 c1 -8 5 -18 8 -22 4 -3 5 1 4 10 -1 8 -5 18 -8 22 -4 3 -5
-1 -4 -10z"/>
<path d="M1820 150 c-8 -5 -10 -10 -5 -10 6 0 17 5 25 10 8 5 11 10 5 10 -5 0
-17 -5 -25 -10z"/>
<path d="M1975 130 c-3 -5 -1 -10 4 -10 6 0 11 5 11 10 0 6 -2 10 -4 10 -3 0
-8 -4 -11 -10z"/>
<path d="M2335 50 c-3 -5 -1 -10 4 -10 6 0 11 5 11 10 0 6 -2 10 -4 10 -3 0
-8 -4 -11 -10z"/>
<path d="M2505 30 c10 -11 20 -20 23 -20 3 0 -3 9 -13 20 -10 11 -20 20 -23
20 -3 0 3 -9 13 -20z"/>
<path d="M2991 34 c0 -11 3 -14 6 -6 3 7 2 16 -1 19 -3 4 -6 -2 -5 -13z"/>
<path d="M2535 30 c3 -5 8 -10 11 -10 2 0 4 5 4 10 0 6 -5 10 -11 10 -5 0 -7
-4 -4 -10z"/>
</g>
</svg>
